<svg width="444" height="71" viewBox="0 0 444 71" fill="none" xmlns="http://www.w3.org/2000/svg">
<path d="M12.0609 30.2254C8.38094 30.2254 5.48761 29.1721 3.38094 27.0654C1.27427 24.9587 0.220941 21.8787 0.220941 17.8254V1.90539H4.22094V17.6654C4.22094 20.7854 4.90094 23.0654 6.26094 24.5054C7.64761 25.9454 9.59427 26.6654 12.1009 26.6654C14.6343 26.6654 16.5809 25.9454 17.9409 24.5054C19.3276 23.0654 20.0209 20.7854 20.0209 17.6654V1.90539H23.9009V17.8254C23.9009 21.8787 22.8476 24.9587 20.7409 27.0654C18.6609 29.1721 15.7676 30.2254 12.0609 30.2254ZM41.6616 8.50539C43.3949 8.50539 44.9149 8.83873 46.2216 9.50539C47.5549 10.1721 48.5949 11.1854 49.3416 12.5454C50.0882 13.9054 50.4616 15.6254 50.4616 17.7054V29.9054H46.6216V18.1454C46.6216 16.0921 46.1149 14.5454 45.1016 13.5054C44.1149 12.4654 42.7149 11.9454 40.9016 11.9454C39.5416 11.9454 38.3549 12.2121 37.3416 12.7454C36.3282 13.2787 35.5416 14.0654 34.9816 15.1054C34.4482 16.1454 34.1816 17.4387 34.1816 18.9854V29.9054H30.3416V8.70539H34.0216V14.4254L33.4216 12.9054C34.1149 11.5187 35.1816 10.4387 36.6216 9.66539C38.0616 8.89206 39.7416 8.50539 41.6616 8.50539ZM65.9103 29.9054V0.225394H69.7503V29.9054H65.9103ZM84.8022 30.1454C82.9889 30.1454 81.3889 29.8121 80.0022 29.1454C78.6422 28.4787 77.5755 27.4654 76.8022 26.1054C76.0555 24.7187 75.6822 22.9854 75.6822 20.9054V8.70539H79.5222V20.4654C79.5222 22.5454 80.0155 24.1054 81.0022 25.1454C82.0155 26.1854 83.4289 26.7054 85.2422 26.7054C86.5755 26.7054 87.7355 26.4387 88.7222 25.9054C89.7089 25.3454 90.4689 24.5454 91.0022 23.5054C91.5355 22.4387 91.8022 21.1587 91.8022 19.6654V8.70539H95.6422V29.9054H92.0022V24.1854L92.6022 25.7054C91.9089 27.1187 90.8689 28.2121 89.4822 28.9854C88.0955 29.7587 86.5355 30.1454 84.8022 30.1454ZM111.033 37.9054C109.086 37.9054 107.193 37.6254 105.353 37.0654C103.539 36.5321 102.059 35.7587 100.913 34.7454L102.753 31.7854C103.739 32.6387 104.953 33.3054 106.393 33.7854C107.833 34.2921 109.339 34.5454 110.913 34.5454C113.419 34.5454 115.259 33.9587 116.433 32.7854C117.606 31.6121 118.193 29.8254 118.193 27.4254V22.9454L118.593 18.7454L118.393 14.5054V8.70539H122.033V27.0254C122.033 30.7587 121.099 33.5054 119.233 35.2654C117.366 37.0254 114.633 37.9054 111.033 37.9054ZM110.553 29.0254C108.499 29.0254 106.659 28.5987 105.033 27.7454C103.433 26.8654 102.153 25.6521 101.193 24.1054C100.259 22.5587 99.7925 20.7721 99.7925 18.7454C99.7925 16.6921 100.259 14.9054 101.193 13.3854C102.153 11.8387 103.433 10.6387 105.033 9.78539C106.659 8.93206 108.499 8.50539 110.553 8.50539C112.366 8.50539 114.019 8.87873 115.513 9.62539C117.006 10.3454 118.193 11.4654 119.073 12.9854C119.979 14.5054 120.433 16.4254 120.433 18.7454C120.433 21.0387 119.979 22.9454 119.073 24.4654C118.193 25.9854 117.006 27.1321 115.513 27.9054C114.019 28.6521 112.366 29.0254 110.553 29.0254ZM110.993 25.6654C112.406 25.6654 113.659 25.3721 114.753 24.7854C115.846 24.1987 116.699 23.3854 117.313 22.3454C117.953 21.3054 118.273 20.1054 118.273 18.7454C118.273 17.3854 117.953 16.1854 117.313 15.1454C116.699 14.1054 115.846 13.3054 114.753 12.7454C113.659 12.1587 112.406 11.8654 110.993 11.8654C109.579 11.8654 108.313 12.1587 107.193 12.7454C106.099 13.3054 105.233 14.1054 104.593 15.1454C103.979 16.1854 103.673 17.3854 103.673 18.7454C103.673 20.1054 103.979 21.3054 104.593 22.3454C105.233 23.3854 106.099 24.1987 107.193 24.7854C108.313 25.3721 109.579 25.6654 110.993 25.6654ZM141.33 29.9054V25.4254L141.13 24.5854V16.9454C141.13 15.3187 140.65 14.0654 139.69 13.1854C138.756 12.2787 137.343 11.8254 135.45 11.8254C134.196 11.8254 132.97 12.0387 131.77 12.4654C130.57 12.8654 129.556 13.4121 128.73 14.1054L127.13 11.2254C128.223 10.3454 129.53 9.67873 131.05 9.22539C132.596 8.74539 134.21 8.50539 135.89 8.50539C138.796 8.50539 141.036 9.21206 142.61 10.6254C144.183 12.0387 144.97 14.1987 144.97 17.1054V29.9054H141.33ZM134.37 30.1454C132.796 30.1454 131.41 29.8787 130.21 29.3454C129.036 28.8121 128.13 28.0787 127.49 27.1454C126.85 26.1854 126.53 25.1054 126.53 23.9054C126.53 22.7587 126.796 21.7187 127.33 20.7854C127.89 19.8521 128.783 19.1054 130.01 18.5454C131.263 17.9854 132.943 17.7054 135.05 17.7054H141.77V20.4654H135.21C133.29 20.4654 131.996 20.7854 131.33 21.4254C130.663 22.0654 130.33 22.8387 130.33 23.7454C130.33 24.7854 130.743 25.6254 131.57 26.2654C132.396 26.8787 133.543 27.1854 135.01 27.1854C136.45 27.1854 137.703 26.8654 138.77 26.2254C139.863 25.5854 140.65 24.6521 141.13 23.4254L141.89 26.0654C141.383 27.3187 140.49 28.3187 139.21 29.0654C137.93 29.7854 136.316 30.1454 134.37 30.1454ZM150.876 29.9054V8.70539H154.556V14.4654L154.196 13.0254C154.783 11.5587 155.769 10.4387 157.156 9.66539C158.543 8.89206 160.249 8.50539 162.276 8.50539V12.2254C162.116 12.1987 161.956 12.1854 161.796 12.1854C161.663 12.1854 161.529 12.1854 161.396 12.1854C159.343 12.1854 157.716 12.7987 156.516 14.0254C155.316 15.2521 154.716 17.0254 154.716 19.3454V29.9054H150.876ZM186.864 30.1454C185.104 30.1454 183.491 29.7454 182.024 28.9454C180.584 28.1187 179.424 26.9054 178.544 25.3054C177.691 23.7054 177.264 21.7054 177.264 19.3054C177.264 16.9054 177.678 14.9054 178.504 13.3054C179.358 11.7054 180.504 10.5054 181.944 9.7054C183.411 8.90539 185.051 8.50539 186.864 8.50539C188.944 8.50539 190.784 8.95873 192.384 9.86539C193.984 10.7721 195.251 12.0387 196.184 13.6654C197.118 15.2654 197.584 17.1454 197.584 19.3054C197.584 21.4654 197.118 23.3587 196.184 24.9854C195.251 26.6121 193.984 27.8787 192.384 28.7854C190.784 29.6921 188.944 30.1454 186.864 30.1454ZM175.624 37.6654V8.70539H179.304V14.4254L179.064 19.3454L179.464 24.2654V37.6654H175.624ZM186.544 26.7854C187.904 26.7854 189.118 26.4787 190.184 25.8654C191.278 25.2521 192.131 24.3854 192.744 23.2654C193.384 22.1187 193.704 20.7987 193.704 19.3054C193.704 17.7854 193.384 16.4787 192.744 15.3854C192.131 14.2654 191.278 13.3987 190.184 12.7854C189.118 12.1721 187.904 11.8654 186.544 11.8654C185.211 11.8654 183.998 12.1721 182.904 12.7854C181.838 13.3987 180.984 14.2654 180.344 15.3854C179.731 16.4787 179.424 17.7854 179.424 19.3054C179.424 20.7987 179.731 22.1187 180.344 23.2654C180.984 24.3854 181.838 25.2521 182.904 25.8654C183.998 26.4787 185.211 26.7854 186.544 26.7854ZM214.655 29.9054V25.4254L214.455 24.5854V16.9454C214.455 15.3187 213.975 14.0654 213.015 13.1854C212.081 12.2787 210.668 11.8254 208.775 11.8254C207.521 11.8254 206.295 12.0387 205.095 12.4654C203.895 12.8654 202.881 13.4121 202.055 14.1054L200.455 11.2254C201.548 10.3454 202.855 9.67873 204.375 9.22539C205.921 8.74539 207.535 8.50539 209.215 8.50539C212.121 8.50539 214.361 9.21206 215.935 10.6254C217.508 12.0387 218.295 14.1987 218.295 17.1054V29.9054H214.655ZM207.695 30.1454C206.121 30.1454 204.735 29.8787 203.535 29.3454C202.361 28.8121 201.455 28.0787 200.815 27.1454C200.175 26.1854 199.855 25.1054 199.855 23.9054C199.855 22.7587 200.121 21.7187 200.655 20.7854C201.215 19.8521 202.108 19.1054 203.335 18.5454C204.588 17.9854 206.268 17.7054 208.375 17.7054H215.095V20.4654H208.535C206.615 20.4654 205.321 20.7854 204.655 21.4254C203.988 22.0654 203.655 22.8387 203.655 23.7454C203.655 24.7854 204.068 25.6254 204.895 26.2654C205.721 26.8787 206.868 27.1854 208.335 27.1854C209.775 27.1854 211.028 26.8654 212.095 26.2254C213.188 25.5854 213.975 24.6521 214.455 23.4254L215.215 26.0654C214.708 27.3187 213.815 28.3187 212.535 29.0654C211.255 29.7854 209.641 30.1454 207.695 30.1454ZM224.201 29.9054V8.70539H227.881V14.4654L227.521 13.0254C228.108 11.5587 229.094 10.4387 230.481 9.66539C231.868 8.89206 233.574 8.50539 235.601 8.50539V12.2254C235.441 12.1987 235.281 12.1854 235.121 12.1854C234.988 12.1854 234.854 12.1854 234.721 12.1854C232.668 12.1854 231.041 12.7987 229.841 14.0254C228.641 15.2521 228.041 17.0254 228.041 19.3454V29.9054H224.201ZM250.731 29.9054V25.4254L250.531 24.5854V16.9454C250.531 15.3187 250.051 14.0654 249.091 13.1854C248.158 12.2787 246.745 11.8254 244.851 11.8254C243.598 11.8254 242.371 12.0387 241.171 12.4654C239.971 12.8654 238.958 13.4121 238.131 14.1054L236.531 11.2254C237.625 10.3454 238.931 9.67873 240.451 9.22539C241.998 8.74539 243.611 8.50539 245.291 8.50539C248.198 8.50539 250.438 9.21206 252.011 10.6254C253.585 12.0387 254.371 14.1987 254.371 17.1054V29.9054H250.731ZM243.771 30.1454C242.198 30.1454 240.811 29.8787 239.611 29.3454C238.438 28.8121 237.531 28.0787 236.891 27.1454C236.251 26.1854 235.931 25.1054 235.931 23.9054C235.931 22.7587 236.198 21.7187 236.731 20.7854C237.291 19.8521 238.185 19.1054 239.411 18.5454C240.665 17.9854 242.345 17.7054 244.451 17.7054H251.171V20.4654H244.611C242.691 20.4654 241.398 20.7854 240.731 21.4254C240.065 22.0654 239.731 22.8387 239.731 23.7454C239.731 24.7854 240.145 25.6254 240.971 26.2654C241.798 26.8787 242.945 27.1854 244.411 27.1854C245.851 27.1854 247.105 26.8654 248.171 26.2254C249.265 25.5854 250.051 24.6521 250.531 23.4254L251.291 26.0654C250.785 27.3187 249.891 28.3187 248.611 29.0654C247.331 29.7854 245.718 30.1454 243.771 30.1454ZM277.1 30.1454C274.966 30.1454 273.313 29.5721 272.14 28.4254C270.966 27.2787 270.38 25.6387 270.38 23.5054V4.06539H274.22V23.3454C274.22 24.4921 274.5 25.3721 275.06 25.9854C275.646 26.5987 276.473 26.9054 277.54 26.9054C278.74 26.9054 279.74 26.5721 280.54 25.9054L281.74 28.6654C281.153 29.1721 280.446 29.5454 279.62 29.7854C278.82 30.0254 277.98 30.1454 277.1 30.1454ZM266.78 11.8654V8.70539H280.3V11.8654H266.78ZM293.559 30.1454C291.426 30.1454 289.532 29.6787 287.879 28.7454C286.226 27.8121 284.919 26.5321 283.959 24.9054C282.999 23.2521 282.519 21.3854 282.519 19.3054C282.519 17.1987 282.999 15.3321 283.959 13.7054C284.919 12.0787 286.226 10.8121 287.879 9.9054C289.532 8.97206 291.426 8.50539 293.559 8.50539C295.666 8.50539 297.546 8.97206 299.199 9.9054C300.879 10.8121 302.186 12.0787 303.119 13.7054C304.079 15.3054 304.559 17.1721 304.559 19.3054C304.559 21.4121 304.079 23.2787 303.119 24.9054C302.186 26.5321 300.879 27.8121 299.199 28.7454C297.546 29.6787 295.666 30.1454 293.559 30.1454ZM293.559 26.7854C294.919 26.7854 296.132 26.4787 297.199 25.8654C298.292 25.2521 299.146 24.3854 299.759 23.2654C300.372 22.1187 300.679 20.7987 300.679 19.3054C300.679 17.7854 300.372 16.4787 299.759 15.3854C299.146 14.2654 298.292 13.3987 297.199 12.7854C296.132 12.1721 294.919 11.8654 293.559 11.8654C292.199 11.8654 290.986 12.1721 289.919 12.7854C288.852 13.3987 287.999 14.2654 287.359 15.3854C286.719 16.4787 286.399 17.7854 286.399 19.3054C286.399 20.7987 286.719 22.1187 287.359 23.2654C287.999 24.3854 288.852 25.2521 289.919 25.8654C290.986 26.4787 292.199 26.7854 293.559 26.7854ZM317.43 30.1454C315.376 30.1454 313.536 29.6921 311.91 28.7854C310.31 27.8787 309.043 26.6121 308.11 24.9854C307.176 23.3587 306.71 21.4654 306.71 19.3054C306.71 17.1454 307.176 15.2654 308.11 13.6654C309.043 12.0387 310.31 10.7721 311.91 9.86539C313.536 8.95873 315.376 8.50539 317.43 8.50539C319.216 8.50539 320.83 8.90539 322.27 9.7054C323.71 10.5054 324.856 11.7054 325.71 13.3054C326.59 14.9054 327.03 16.9054 327.03 19.3054C327.03 21.7054 326.603 23.7054 325.75 25.3054C324.923 26.9054 323.79 28.1187 322.35 28.9454C320.91 29.7454 319.27 30.1454 317.43 30.1454ZM317.75 26.7854C319.083 26.7854 320.283 26.4787 321.35 25.8654C322.443 25.2521 323.296 24.3854 323.91 23.2654C324.55 22.1187 324.87 20.7987 324.87 19.3054C324.87 17.7854 324.55 16.4787 323.91 15.3854C323.296 14.2654 322.443 13.3987 321.35 12.7854C320.283 12.1721 319.083 11.8654 317.75 11.8654C316.39 11.8654 315.176 12.1721 314.11 12.7854C313.043 13.3987 312.19 14.2654 311.55 15.3854C310.91 16.4787 310.59 17.7854 310.59 19.3054C310.59 20.7987 310.91 22.1187 311.55 23.2654C312.19 24.3854 313.043 25.2521 314.11 25.8654C315.176 26.4787 316.39 26.7854 317.75 26.7854ZM324.99 29.9054V24.1854L325.23 19.2654L324.83 14.3454V0.225394H328.67V29.9054H324.99ZM343.815 30.1454C341.682 30.1454 339.789 29.6787 338.135 28.7454C336.482 27.8121 335.175 26.5321 334.215 24.9054C333.255 23.2521 332.775 21.3854 332.775 19.3054C332.775 17.1987 333.255 15.3321 334.215 13.7054C335.175 12.0787 336.482 10.8121 338.135 9.9054C339.789 8.97206 341.682 8.50539 343.815 8.50539C345.922 8.50539 347.802 8.97206 349.455 9.9054C351.135 10.8121 352.442 12.0787 353.375 13.7054C354.335 15.3054 354.815 17.1721 354.815 19.3054C354.815 21.4121 354.335 23.2787 353.375 24.9054C352.442 26.5321 351.135 27.8121 349.455 28.7454C347.802 29.6787 345.922 30.1454 343.815 30.1454ZM343.815 26.7854C345.175 26.7854 346.389 26.4787 347.455 25.8654C348.549 25.2521 349.402 24.3854 350.015 23.2654C350.629 22.1187 350.935 20.7987 350.935 19.3054C350.935 17.7854 350.629 16.4787 350.015 15.3854C349.402 14.2654 348.549 13.3987 347.455 12.7854C346.389 12.1721 345.175 11.8654 343.815 11.8654C342.455 11.8654 341.242 12.1721 340.175 12.7854C339.109 13.3987 338.255 14.2654 337.615 15.3854C336.975 16.4787 336.655 17.7854 336.655 19.3054C336.655 20.7987 336.975 22.1187 337.615 23.2654C338.255 24.3854 339.109 25.2521 340.175 25.8654C341.242 26.4787 342.455 26.7854 343.815 26.7854ZM365.006 30.1454C363.246 30.1454 361.566 29.9054 359.966 29.4254C358.393 28.9454 357.153 28.3587 356.246 27.6654L357.846 24.6254C358.753 25.2387 359.873 25.7587 361.206 26.1854C362.539 26.6121 363.899 26.8254 365.286 26.8254C367.073 26.8254 368.353 26.5721 369.126 26.0654C369.926 25.5587 370.326 24.8521 370.326 23.9454C370.326 23.2787 370.086 22.7587 369.606 22.3854C369.126 22.0121 368.486 21.7321 367.686 21.5454C366.913 21.3587 366.046 21.1987 365.086 21.0654C364.126 20.9054 363.166 20.7187 362.206 20.5054C361.246 20.2654 360.366 19.9454 359.566 19.5454C358.766 19.1187 358.126 18.5454 357.646 17.8254C357.166 17.0787 356.926 16.0921 356.926 14.8654C356.926 13.5854 357.286 12.4654 358.006 11.5054C358.726 10.5454 359.739 9.81206 361.046 9.30539C362.379 8.77206 363.953 8.50539 365.766 8.50539C367.153 8.50539 368.553 8.67873 369.966 9.02539C371.406 9.34539 372.579 9.81206 373.486 10.4254L371.846 13.4654C370.886 12.8254 369.886 12.3854 368.846 12.1454C367.806 11.9054 366.766 11.7854 365.726 11.7854C364.046 11.7854 362.793 12.0654 361.966 12.6254C361.139 13.1587 360.726 13.8521 360.726 14.7054C360.726 15.4254 360.966 15.9854 361.446 16.3854C361.953 16.7587 362.593 17.0521 363.366 17.2654C364.166 17.4787 365.046 17.6654 366.006 17.8254C366.966 17.9587 367.926 18.1454 368.886 18.3854C369.846 18.5987 370.713 18.9054 371.486 19.3054C372.286 19.7054 372.926 20.2654 373.406 20.9854C373.913 21.7054 374.166 22.6654 374.166 23.8654C374.166 25.1454 373.793 26.2521 373.046 27.1854C372.299 28.1187 371.246 28.8521 369.886 29.3854C368.526 29.8921 366.899 30.1454 365.006 30.1454ZM394.587 30.1454C392.454 30.1454 390.801 29.5721 389.627 28.4254C388.454 27.2787 387.867 25.6387 387.867 23.5054V4.06539H391.707V23.3454C391.707 24.4921 391.987 25.3721 392.547 25.9854C393.134 26.5987 393.961 26.9054 395.027 26.9054C396.227 26.9054 397.227 26.5721 398.027 25.9054L399.227 28.6654C398.641 29.1721 397.934 29.5454 397.107 29.7854C396.307 30.0254 395.467 30.1454 394.587 30.1454ZM384.267 11.8654V8.70539H397.787V11.8654H384.267ZM411.59 30.1454C409.776 30.1454 408.176 29.8121 406.79 29.1454C405.43 28.4787 404.363 27.4654 403.59 26.1054C402.843 24.7187 402.47 22.9854 402.47 20.9054V8.70539H406.31V20.4654C406.31 22.5454 406.803 24.1054 407.79 25.1454C408.803 26.1854 410.216 26.7054 412.03 26.7054C413.363 26.7054 414.523 26.4387 415.51 25.9054C416.496 25.3454 417.256 24.5454 417.79 23.5054C418.323 22.4387 418.59 21.1587 418.59 19.6654V8.70539H422.43V29.9054H418.79V24.1854L419.39 25.7054C418.696 27.1187 417.656 28.2121 416.27 28.9854C414.883 29.7587 413.323 30.1454 411.59 30.1454ZM434.62 30.1454C432.86 30.1454 431.18 29.9054 429.58 29.4254C428.007 28.9454 426.767 28.3587 425.86 27.6654L427.46 24.6254C428.367 25.2387 429.487 25.7587 430.82 26.1854C432.153 26.6121 433.513 26.8254 434.9 26.8254C436.687 26.8254 437.967 26.5721 438.74 26.0654C439.54 25.5587 439.94 24.8521 439.94 23.9454C439.94 23.2787 439.7 22.7587 439.22 22.3854C438.74 22.0121 438.1 21.7321 437.3 21.5454C436.527 21.3587 435.66 21.1987 434.7 21.0654C433.74 20.9054 432.78 20.7187 431.82 20.5054C430.86 20.2654 429.98 19.9454 429.18 19.5454C428.38 19.1187 427.74 18.5454 427.26 17.8254C426.78 17.0787 426.54 16.0921 426.54 14.8654C426.54 13.5854 426.9 12.4654 427.62 11.5054C428.34 10.5454 429.353 9.81206 430.66 9.30539C431.993 8.77206 433.567 8.50539 435.38 8.50539C436.767 8.50539 438.167 8.67873 439.58 9.02539C441.02 9.34539 442.193 9.81206 443.1 10.4254L441.46 13.4654C440.5 12.8254 439.5 12.3854 438.46 12.1454C437.42 11.9054 436.38 11.7854 435.34 11.7854C433.66 11.7854 432.407 12.0654 431.58 12.6254C430.753 13.1587 430.34 13.8521 430.34 14.7054C430.34 15.4254 430.58 15.9854 431.06 16.3854C431.567 16.7587 432.207 17.0521 432.98 17.2654C433.78 17.4787 434.66 17.6654 435.62 17.8254C436.58 17.9587 437.54 18.1454 438.5 18.3854C439.46 18.5987 440.327 18.9054 441.1 19.3054C441.9 19.7054 442.54 20.2654 443.02 20.9854C443.527 21.7054 443.78 22.6654 443.78 23.8654C443.78 25.1454 443.407 26.2521 442.66 27.1854C441.913 28.1187 440.86 28.8521 439.5 29.3854C438.14 29.8921 436.513 30.1454 434.62 30.1454ZM157.246 70.1454C154.98 70.1454 152.98 69.6787 151.246 68.7454C149.54 67.8121 148.206 66.5321 147.246 64.9054C146.313 63.2787 145.846 61.4121 145.846 59.3054C145.846 57.1987 146.3 55.3321 147.206 53.7054C148.14 52.0787 149.406 50.8121 151.006 49.9054C152.633 48.9721 154.46 48.5054 156.486 48.5054C158.54 48.5054 160.353 48.9587 161.926 49.8654C163.5 50.7721 164.726 52.0521 165.606 53.7054C166.513 55.3321 166.966 57.2387 166.966 59.4254C166.966 59.5854 166.953 59.7721 166.926 59.9854C166.926 60.1987 166.913 60.3987 166.886 60.5854H148.846V57.8254H164.886L163.326 58.7854C163.353 57.4254 163.073 56.2121 162.486 55.1454C161.9 54.0787 161.086 53.2521 160.046 52.6654C159.033 52.0521 157.846 51.7454 156.486 51.7454C155.153 51.7454 153.966 52.0521 152.926 52.6654C151.886 53.2521 151.073 54.0921 150.486 55.1854C149.9 56.2521 149.606 57.4787 149.606 58.8654V59.5054C149.606 60.9187 149.926 62.1854 150.566 63.3054C151.233 64.3987 152.153 65.2521 153.326 65.8654C154.5 66.4787 155.846 66.7854 157.366 66.7854C158.62 66.7854 159.753 66.5721 160.766 66.1454C161.806 65.7187 162.713 65.0787 163.486 64.2254L165.606 66.7054C164.646 67.8254 163.446 68.6787 162.006 69.2654C160.593 69.8521 159.006 70.1454 157.246 70.1454ZM176.268 69.9054L166.988 48.7054H170.988L179.228 67.9054H177.308L185.708 48.7054H189.468L180.188 69.9054H176.268ZM200.706 70.1454C198.439 70.1454 196.439 69.6787 194.706 68.7454C192.999 67.8121 191.666 66.5321 190.706 64.9054C189.772 63.2787 189.306 61.4121 189.306 59.3054C189.306 57.1987 189.759 55.3321 190.666 53.7054C191.599 52.0787 192.866 50.8121 194.466 49.9054C196.092 48.9721 197.919 48.5054 199.946 48.5054C201.999 48.5054 203.812 48.9587 205.386 49.8654C206.959 50.7721 208.186 52.0521 209.066 53.7054C209.972 55.3321 210.426 57.2387 210.426 59.4254C210.426 59.5854 210.412 59.7721 210.386 59.9854C210.386 60.1987 210.372 60.3987 210.346 60.5854H192.306V57.8254H208.346L206.786 58.7854C206.812 57.4254 206.532 56.2121 205.946 55.1454C205.359 54.0787 204.546 53.2521 203.506 52.6654C202.492 52.0521 201.306 51.7454 199.946 51.7454C198.612 51.7454 197.426 52.0521 196.386 52.6654C195.346 53.2521 194.532 54.0921 193.946 55.1854C193.359 56.2521 193.066 57.4787 193.066 58.8654V59.5054C193.066 60.9187 193.386 62.1854 194.026 63.3054C194.692 64.3987 195.612 65.2521 196.786 65.8654C197.959 66.4787 199.306 66.7854 200.826 66.7854C202.079 66.7854 203.212 66.5721 204.226 66.1454C205.266 65.7187 206.172 65.0787 206.946 64.2254L209.066 66.7054C208.106 67.8254 206.906 68.6787 205.466 69.2654C204.052 69.8521 202.466 70.1454 200.706 70.1454ZM225.878 48.5054C227.611 48.5054 229.131 48.8387 230.438 49.5054C231.771 50.1721 232.811 51.1854 233.558 52.5454C234.305 53.9054 234.678 55.6254 234.678 57.7054V69.9054H230.838V58.1454C230.838 56.0921 230.331 54.5454 229.318 53.5054C228.331 52.4654 226.931 51.9454 225.118 51.9454C223.758 51.9454 222.571 52.2121 221.558 52.7454C220.545 53.2787 219.758 54.0654 219.198 55.1054C218.665 56.1454 218.398 57.4387 218.398 58.9854V69.9054H214.558V48.7054H218.238V54.4254L217.638 52.9054C218.331 51.5187 219.398 50.4387 220.838 49.6654C222.278 48.8921 223.958 48.5054 225.878 48.5054ZM247.865 70.1454C245.731 70.1454 244.078 69.5721 242.905 68.4254C241.731 67.2787 241.145 65.6387 241.145 63.5054V44.0654H244.985V63.3454C244.985 64.4921 245.265 65.3721 245.825 65.9854C246.411 66.5987 247.238 66.9054 248.305 66.9054C249.505 66.9054 250.505 66.5721 251.305 65.9054L252.505 68.6654C251.918 69.1721 251.211 69.5454 250.385 69.7854C249.585 70.0254 248.745 70.1454 247.865 70.1454ZM237.545 51.8654V48.7054H251.065V51.8654H237.545ZM264.324 70.1454C262.191 70.1454 260.297 69.6787 258.644 68.7454C256.991 67.8121 255.684 66.5321 254.724 64.9054C253.764 63.2521 253.284 61.3854 253.284 59.3054C253.284 57.1987 253.764 55.3321 254.724 53.7054C255.684 52.0787 256.991 50.8121 258.644 49.9054C260.297 48.9721 262.191 48.5054 264.324 48.5054C266.431 48.5054 268.311 48.9721 269.964 49.9054C271.644 50.8121 272.951 52.0787 273.884 53.7054C274.844 55.3054 275.324 57.1721 275.324 59.3054C275.324 61.4121 274.844 63.2787 273.884 64.9054C272.951 66.5321 271.644 67.8121 269.964 68.7454C268.311 69.6787 266.431 70.1454 264.324 70.1454ZM264.324 66.7854C265.684 66.7854 266.897 66.4787 267.964 65.8654C269.057 65.2521 269.911 64.3854 270.524 63.2654C271.137 62.1187 271.444 60.7987 271.444 59.3054C271.444 57.7854 271.137 56.4787 270.524 55.3854C269.911 54.2654 269.057 53.3987 267.964 52.7854C266.897 52.1721 265.684 51.8654 264.324 51.8654C262.964 51.8654 261.751 52.1721 260.684 52.7854C259.617 53.3987 258.764 54.2654 258.124 55.3854C257.484 56.4787 257.164 57.7854 257.164 59.3054C257.164 60.7987 257.484 62.1187 258.124 63.2654C258.764 64.3854 259.617 65.2521 260.684 65.8654C261.751 66.4787 262.964 66.7854 264.324 66.7854ZM285.515 70.1454C283.755 70.1454 282.075 69.9054 280.475 69.4254C278.901 68.9454 277.661 68.3587 276.755 67.6654L278.355 64.6254C279.261 65.2387 280.381 65.7587 281.715 66.1854C283.048 66.6121 284.408 66.8254 285.795 66.8254C287.581 66.8254 288.861 66.5721 289.635 66.0654C290.435 65.5587 290.835 64.8521 290.835 63.9454C290.835 63.2787 290.595 62.7587 290.115 62.3854C289.635 62.0121 288.995 61.7321 288.195 61.5454C287.421 61.3587 286.555 61.1987 285.595 61.0654C284.635 60.9054 283.675 60.7187 282.715 60.5054C281.755 60.2654 280.875 59.9454 280.075 59.5454C279.275 59.1187 278.635 58.5454 278.155 57.8254C277.675 57.0787 277.435 56.0921 277.435 54.8654C277.435 53.5854 277.795 52.4654 278.515 51.5054C279.235 50.5454 280.248 49.8121 281.555 49.3054C282.888 48.7721 284.461 48.5054 286.275 48.5054C287.661 48.5054 289.061 48.6787 290.475 49.0254C291.915 49.3454 293.088 49.8121 293.995 50.4254L292.355 53.4654C291.395 52.8254 290.395 52.3854 289.355 52.1454C288.315 51.9054 287.275 51.7854 286.235 51.7854C284.555 51.7854 283.301 52.0654 282.475 52.6254C281.648 53.1587 281.235 53.8521 281.235 54.7054C281.235 55.4254 281.475 55.9854 281.955 56.3854C282.461 56.7587 283.101 57.0521 283.875 57.2654C284.675 57.4787 285.555 57.6654 286.515 57.8254C287.475 57.9587 288.435 58.1454 289.395 58.3854C290.355 58.5987 291.221 58.9054 291.995 59.3054C292.795 59.7054 293.435 60.2654 293.915 60.9854C294.421 61.7054 294.675 62.6654 294.675 63.8654C294.675 65.1454 294.301 66.2521 293.555 67.1854C292.808 68.1187 291.755 68.8521 290.395 69.3854C289.035 69.8921 287.408 70.1454 285.515 70.1454Z" fill="url(#paint0_linear_1_1019)"/>
<defs>
<linearGradient id="paint0_linear_1_1019" x1="220" y1="-4.09461" x2="236.5" y2="140.208" gradientUnits="userSpaceOnUse">
<stop stop-color="#ECECEC"/>
<stop offset="1" stop-color="#ECECEC" stop-opacity="0"/>
</linearGradient>
</defs>
</svg>
