<svg width="255" height="111" viewBox="0 0 255 111" fill="none" xmlns="http://www.w3.org/2000/svg">
<path d="M12.6117 30.2253C8.93172 30.2253 6.03839 29.1719 3.93172 27.0653C1.82506 24.9586 0.771722 21.8786 0.771722 17.8253V1.90527H4.77172V17.6653C4.77172 20.7853 5.45172 23.0653 6.81172 24.5053C8.19839 25.9453 10.1451 26.6653 12.6517 26.6653C15.1851 26.6653 17.1317 25.9453 18.4917 24.5053C19.8784 23.0653 20.5717 20.7853 20.5717 17.6653V1.90527H24.4517V17.8253C24.4517 21.8786 23.3984 24.9586 21.2917 27.0653C19.2117 29.1719 16.3184 30.2253 12.6117 30.2253ZM42.2123 8.50527C43.9457 8.50527 45.4657 8.83861 46.7723 9.50527C48.1057 10.1719 49.1457 11.1853 49.8923 12.5453C50.639 13.9053 51.0123 15.6253 51.0123 17.7053V29.9053H47.1723V18.1453C47.1723 16.0919 46.6657 14.5453 45.6523 13.5053C44.6657 12.4653 43.2657 11.9453 41.4523 11.9453C40.0923 11.9453 38.9057 12.2119 37.8923 12.7453C36.879 13.2786 36.0923 14.0653 35.5323 15.1053C34.999 16.1453 34.7323 17.4386 34.7323 18.9853V29.9053H30.8923V8.70527H34.5723V14.4253L33.9723 12.9053C34.6657 11.5186 35.7323 10.4386 37.1723 9.66527C38.6123 8.89194 40.2923 8.50527 42.2123 8.50527ZM66.4611 29.9053V0.225272H70.3011V29.9053H66.4611ZM85.353 30.1453C83.5396 30.1453 81.9396 29.8119 80.553 29.1453C79.193 28.4786 78.1263 27.4653 77.353 26.1053C76.6063 24.7186 76.233 22.9853 76.233 20.9053V8.70527H80.073V20.4653C80.073 22.5453 80.5663 24.1053 81.553 25.1453C82.5663 26.1853 83.9796 26.7053 85.793 26.7053C87.1263 26.7053 88.2863 26.4386 89.273 25.9053C90.2596 25.3453 91.0196 24.5453 91.553 23.5053C92.0863 22.4386 92.353 21.1586 92.353 19.6653V8.70527H96.193V29.9053H92.553V24.1853L93.153 25.7053C92.4596 27.1186 91.4196 28.2119 90.033 28.9853C88.6463 29.7586 87.0863 30.1453 85.353 30.1453ZM111.583 37.9053C109.637 37.9053 107.743 37.6253 105.903 37.0653C104.09 36.5319 102.61 35.7586 101.463 34.7453L103.303 31.7853C104.29 32.6386 105.503 33.3053 106.943 33.7853C108.383 34.2919 109.89 34.5453 111.463 34.5453C113.97 34.5453 115.81 33.9586 116.983 32.7853C118.157 31.6119 118.743 29.8253 118.743 27.4253V22.9453L119.143 18.7453L118.943 14.5053V8.70527H122.583V27.0253C122.583 30.7586 121.65 33.5053 119.783 35.2653C117.917 37.0253 115.183 37.9053 111.583 37.9053ZM111.103 29.0253C109.05 29.0253 107.21 28.5986 105.583 27.7453C103.983 26.8653 102.703 25.6519 101.743 24.1053C100.81 22.5586 100.343 20.7719 100.343 18.7453C100.343 16.6919 100.81 14.9053 101.743 13.3853C102.703 11.8386 103.983 10.6386 105.583 9.78527C107.21 8.93194 109.05 8.50527 111.103 8.50527C112.917 8.50527 114.57 8.87861 116.063 9.62527C117.557 10.3453 118.743 11.4653 119.623 12.9853C120.53 14.5053 120.983 16.4253 120.983 18.7453C120.983 21.0386 120.53 22.9453 119.623 24.4653C118.743 25.9853 117.557 27.1319 116.063 27.9053C114.57 28.6519 112.917 29.0253 111.103 29.0253ZM111.543 25.6653C112.957 25.6653 114.21 25.3719 115.303 24.7853C116.397 24.1986 117.25 23.3853 117.863 22.3453C118.503 21.3053 118.823 20.1053 118.823 18.7453C118.823 17.3853 118.503 16.1853 117.863 15.1453C117.25 14.1053 116.397 13.3053 115.303 12.7453C114.21 12.1586 112.957 11.8653 111.543 11.8653C110.13 11.8653 108.863 12.1586 107.743 12.7453C106.65 13.3053 105.783 14.1053 105.143 15.1453C104.53 16.1853 104.223 17.3853 104.223 18.7453C104.223 20.1053 104.53 21.3053 105.143 22.3453C105.783 23.3853 106.65 24.1986 107.743 24.7853C108.863 25.3719 110.13 25.6653 111.543 25.6653ZM141.88 29.9053V25.4253L141.68 24.5853V16.9453C141.68 15.3186 141.2 14.0653 140.24 13.1853C139.307 12.2786 137.894 11.8253 136 11.8253C134.747 11.8253 133.52 12.0386 132.32 12.4653C131.12 12.8653 130.107 13.4119 129.28 14.1053L127.68 11.2253C128.774 10.3453 130.08 9.67861 131.6 9.22527C133.147 8.74527 134.76 8.50527 136.44 8.50527C139.347 8.50527 141.587 9.21194 143.16 10.6253C144.734 12.0386 145.52 14.1986 145.52 17.1053V29.9053H141.88ZM134.92 30.1453C133.347 30.1453 131.96 29.8786 130.76 29.3453C129.587 28.8119 128.68 28.0786 128.04 27.1453C127.4 26.1853 127.08 25.1053 127.08 23.9053C127.08 22.7586 127.347 21.7186 127.88 20.7853C128.44 19.8519 129.334 19.1053 130.56 18.5453C131.814 17.9853 133.494 17.7053 135.6 17.7053H142.32V20.4653H135.76C133.84 20.4653 132.547 20.7853 131.88 21.4253C131.214 22.0653 130.88 22.8386 130.88 23.7453C130.88 24.7853 131.294 25.6253 132.12 26.2653C132.947 26.8786 134.094 27.1853 135.56 27.1853C137 27.1853 138.254 26.8653 139.32 26.2253C140.414 25.5853 141.2 24.6519 141.68 23.4253L142.44 26.0653C141.934 27.3186 141.04 28.3186 139.76 29.0653C138.48 29.7853 136.867 30.1453 134.92 30.1453ZM151.427 29.9053V8.70527H155.107V14.4653L154.747 13.0253C155.333 11.5586 156.32 10.4386 157.707 9.66527C159.093 8.89194 160.8 8.50527 162.827 8.50527V12.2253C162.667 12.1986 162.507 12.1853 162.347 12.1853C162.213 12.1853 162.08 12.1853 161.947 12.1853C159.893 12.1853 158.267 12.7986 157.067 14.0253C155.867 15.2519 155.267 17.0253 155.267 19.3453V29.9053H151.427ZM187.415 30.1453C185.655 30.1453 184.042 29.7453 182.575 28.9453C181.135 28.1186 179.975 26.9053 179.095 25.3053C178.242 23.7053 177.815 21.7053 177.815 19.3053C177.815 16.9053 178.228 14.9053 179.055 13.3053C179.908 11.7053 181.055 10.5053 182.495 9.70527C183.962 8.90527 185.602 8.50527 187.415 8.50527C189.495 8.50527 191.335 8.95861 192.935 9.86527C194.535 10.7719 195.802 12.0386 196.735 13.6653C197.668 15.2653 198.135 17.1453 198.135 19.3053C198.135 21.4653 197.668 23.3586 196.735 24.9853C195.802 26.6119 194.535 27.8786 192.935 28.7853C191.335 29.6919 189.495 30.1453 187.415 30.1453ZM176.175 37.6653V8.70527H179.855V14.4253L179.615 19.3453L180.015 24.2653V37.6653H176.175ZM187.095 26.7853C188.455 26.7853 189.668 26.4786 190.735 25.8653C191.828 25.2519 192.682 24.3853 193.295 23.2653C193.935 22.1186 194.255 20.7986 194.255 19.3053C194.255 17.7853 193.935 16.4786 193.295 15.3853C192.682 14.2653 191.828 13.3986 190.735 12.7853C189.668 12.1719 188.455 11.8653 187.095 11.8653C185.762 11.8653 184.548 12.1719 183.455 12.7853C182.388 13.3986 181.535 14.2653 180.895 15.3853C180.282 16.4786 179.975 17.7853 179.975 19.3053C179.975 20.7986 180.282 22.1186 180.895 23.2653C181.535 24.3853 182.388 25.2519 183.455 25.8653C184.548 26.4786 185.762 26.7853 187.095 26.7853ZM215.205 29.9053V25.4253L215.005 24.5853V16.9453C215.005 15.3186 214.525 14.0653 213.565 13.1853C212.632 12.2786 211.219 11.8253 209.325 11.8253C208.072 11.8253 206.845 12.0386 205.645 12.4653C204.445 12.8653 203.432 13.4119 202.605 14.1053L201.005 11.2253C202.099 10.3453 203.405 9.67861 204.925 9.22527C206.472 8.74527 208.085 8.50527 209.765 8.50527C212.672 8.50527 214.912 9.21194 216.485 10.6253C218.059 12.0386 218.845 14.1986 218.845 17.1053V29.9053H215.205ZM208.245 30.1453C206.672 30.1453 205.285 29.8786 204.085 29.3453C202.912 28.8119 202.005 28.0786 201.365 27.1453C200.725 26.1853 200.405 25.1053 200.405 23.9053C200.405 22.7586 200.672 21.7186 201.205 20.7853C201.765 19.8519 202.659 19.1053 203.885 18.5453C205.139 17.9853 206.819 17.7053 208.925 17.7053H215.645V20.4653H209.085C207.165 20.4653 205.872 20.7853 205.205 21.4253C204.539 22.0653 204.205 22.8386 204.205 23.7453C204.205 24.7853 204.619 25.6253 205.445 26.2653C206.272 26.8786 207.419 27.1853 208.885 27.1853C210.325 27.1853 211.579 26.8653 212.645 26.2253C213.739 25.5853 214.525 24.6519 215.005 23.4253L215.765 26.0653C215.259 27.3186 214.365 28.3186 213.085 29.0653C211.805 29.7853 210.192 30.1453 208.245 30.1453ZM224.752 29.9053V8.70527H228.432V14.4653L228.072 13.0253C228.658 11.5586 229.645 10.4386 231.032 9.66527C232.418 8.89194 234.125 8.50527 236.152 8.50527V12.2253C235.992 12.1986 235.832 12.1853 235.672 12.1853C235.538 12.1853 235.405 12.1853 235.272 12.1853C233.218 12.1853 231.592 12.7986 230.392 14.0253C229.192 15.2519 228.592 17.0253 228.592 19.3453V29.9053H224.752ZM251.282 29.9053V25.4253L251.082 24.5853V16.9453C251.082 15.3186 250.602 14.0653 249.642 13.1853C248.709 12.2786 247.295 11.8253 245.402 11.8253C244.149 11.8253 242.922 12.0386 241.722 12.4653C240.522 12.8653 239.509 13.4119 238.682 14.1053L237.082 11.2253C238.175 10.3453 239.482 9.67861 241.002 9.22527C242.549 8.74527 244.162 8.50527 245.842 8.50527C248.749 8.50527 250.989 9.21194 252.562 10.6253C254.135 12.0386 254.922 14.1986 254.922 17.1053V29.9053H251.282ZM244.322 30.1453C242.749 30.1453 241.362 29.8786 240.162 29.3453C238.989 28.8119 238.082 28.0786 237.442 27.1453C236.802 26.1853 236.482 25.1053 236.482 23.9053C236.482 22.7586 236.749 21.7186 237.282 20.7853C237.842 19.8519 238.735 19.1053 239.962 18.5453C241.215 17.9853 242.895 17.7053 245.002 17.7053H251.722V20.4653H245.162C243.242 20.4653 241.949 20.7853 241.282 21.4253C240.615 22.0653 240.282 22.8386 240.282 23.7453C240.282 24.7853 240.695 25.6253 241.522 26.2653C242.349 26.8786 243.495 27.1853 244.962 27.1853C246.402 27.1853 247.655 26.8653 248.722 26.2253C249.815 25.5853 250.602 24.6519 251.082 23.4253L251.842 26.0653C251.335 27.3186 250.442 28.3186 249.162 29.0653C247.882 29.7853 246.269 30.1453 244.322 30.1453ZM49.1403 70.1453C47.007 70.1453 45.3536 69.5719 44.1803 68.4253C43.007 67.2786 42.4203 65.6386 42.4203 63.5053V44.0653H46.2603V63.3453C46.2603 64.4919 46.5403 65.3719 47.1003 65.9853C47.687 66.5986 48.5136 66.9053 49.5803 66.9053C50.7803 66.9053 51.7803 66.5719 52.5803 65.9053L53.7803 68.6653C53.1936 69.1719 52.487 69.5453 51.6603 69.7853C50.8603 70.0253 50.0203 70.1453 49.1403 70.1453ZM38.8203 51.8653V48.7053H52.3403V51.8653H38.8203ZM65.5997 70.1453C63.4664 70.1453 61.573 69.6786 59.9197 68.7453C58.2664 67.8119 56.9597 66.5319 55.9997 64.9053C55.0397 63.2519 54.5597 61.3853 54.5597 59.3053C54.5597 57.1986 55.0397 55.3319 55.9997 53.7053C56.9597 52.0786 58.2664 50.8119 59.9197 49.9053C61.573 48.9719 63.4664 48.5053 65.5997 48.5053C67.7064 48.5053 69.5864 48.9719 71.2397 49.9053C72.9197 50.8119 74.2264 52.0786 75.1597 53.7053C76.1197 55.3053 76.5997 57.1719 76.5997 59.3053C76.5997 61.4119 76.1197 63.2786 75.1597 64.9053C74.2264 66.5319 72.9197 67.8119 71.2397 68.7453C69.5864 69.6786 67.7064 70.1453 65.5997 70.1453ZM65.5997 66.7853C66.9597 66.7853 68.173 66.4786 69.2397 65.8653C70.333 65.2519 71.1864 64.3853 71.7997 63.2653C72.413 62.1186 72.7197 60.7986 72.7197 59.3053C72.7197 57.7853 72.413 56.4786 71.7997 55.3853C71.1864 54.2653 70.333 53.3986 69.2397 52.7853C68.173 52.1719 66.9597 51.8653 65.5997 51.8653C64.2397 51.8653 63.0264 52.1719 61.9597 52.7853C60.893 53.3986 60.0397 54.2653 59.3997 55.3853C58.7597 56.4786 58.4397 57.7853 58.4397 59.3053C58.4397 60.7986 58.7597 62.1186 59.3997 63.2653C60.0397 64.3853 60.893 65.2519 61.9597 65.8653C63.0264 66.4786 64.2397 66.7853 65.5997 66.7853ZM89.4703 70.1453C87.417 70.1453 85.577 69.6919 83.9503 68.7853C82.3503 67.8786 81.0836 66.6119 80.1503 64.9853C79.217 63.3586 78.7503 61.4653 78.7503 59.3053C78.7503 57.1453 79.217 55.2653 80.1503 53.6653C81.0836 52.0386 82.3503 50.7719 83.9503 49.8653C85.577 48.9586 87.417 48.5053 89.4703 48.5053C91.257 48.5053 92.8703 48.9053 94.3103 49.7053C95.7503 50.5053 96.897 51.7053 97.7503 53.3053C98.6303 54.9053 99.0703 56.9053 99.0703 59.3053C99.0703 61.7053 98.6436 63.7053 97.7903 65.3053C96.9636 66.9053 95.8303 68.1186 94.3903 68.9453C92.9503 69.7453 91.3103 70.1453 89.4703 70.1453ZM89.7903 66.7853C91.1236 66.7853 92.3236 66.4786 93.3903 65.8653C94.4836 65.2519 95.337 64.3853 95.9503 63.2653C96.5903 62.1186 96.9103 60.7986 96.9103 59.3053C96.9103 57.7853 96.5903 56.4786 95.9503 55.3853C95.337 54.2653 94.4836 53.3986 93.3903 52.7853C92.3236 52.1719 91.1236 51.8653 89.7903 51.8653C88.4303 51.8653 87.217 52.1719 86.1503 52.7853C85.0836 53.3986 84.2303 54.2653 83.5903 55.3853C82.9503 56.4786 82.6303 57.7853 82.6303 59.3053C82.6303 60.7986 82.9503 62.1186 83.5903 63.2653C84.2303 64.3853 85.0836 65.2519 86.1503 65.8653C87.217 66.4786 88.4303 66.7853 89.7903 66.7853ZM97.0303 69.9053V64.1853L97.2703 59.2653L96.8703 54.3453V40.2253H100.71V69.9053H97.0303ZM115.856 70.1453C113.723 70.1453 111.829 69.6786 110.176 68.7453C108.523 67.8119 107.216 66.5319 106.256 64.9053C105.296 63.2519 104.816 61.3853 104.816 59.3053C104.816 57.1986 105.296 55.3319 106.256 53.7053C107.216 52.0786 108.523 50.8119 110.176 49.9053C111.829 48.9719 113.723 48.5053 115.856 48.5053C117.963 48.5053 119.843 48.9719 121.496 49.9053C123.176 50.8119 124.483 52.0786 125.416 53.7053C126.376 55.3053 126.856 57.1719 126.856 59.3053C126.856 61.4119 126.376 63.2786 125.416 64.9053C124.483 66.5319 123.176 67.8119 121.496 68.7453C119.843 69.6786 117.963 70.1453 115.856 70.1453ZM115.856 66.7853C117.216 66.7853 118.429 66.4786 119.496 65.8653C120.589 65.2519 121.443 64.3853 122.056 63.2653C122.669 62.1186 122.976 60.7986 122.976 59.3053C122.976 57.7853 122.669 56.4786 122.056 55.3853C121.443 54.2653 120.589 53.3986 119.496 52.7853C118.429 52.1719 117.216 51.8653 115.856 51.8653C114.496 51.8653 113.283 52.1719 112.216 52.7853C111.149 53.3986 110.296 54.2653 109.656 55.3853C109.016 56.4786 108.696 57.7853 108.696 59.3053C108.696 60.7986 109.016 62.1186 109.656 63.2653C110.296 64.3853 111.149 65.2519 112.216 65.8653C113.283 66.4786 114.496 66.7853 115.856 66.7853ZM137.047 70.1453C135.287 70.1453 133.607 69.9053 132.007 69.4253C130.433 68.9453 129.193 68.3586 128.287 67.6653L129.887 64.6253C130.793 65.2386 131.913 65.7586 133.247 66.1853C134.58 66.6119 135.94 66.8253 137.327 66.8253C139.113 66.8253 140.393 66.5719 141.167 66.0653C141.967 65.5586 142.367 64.8519 142.367 63.9453C142.367 63.2786 142.127 62.7586 141.647 62.3853C141.167 62.0119 140.527 61.7319 139.727 61.5453C138.953 61.3586 138.087 61.1986 137.127 61.0653C136.167 60.9053 135.207 60.7186 134.247 60.5053C133.287 60.2653 132.407 59.9453 131.607 59.5453C130.807 59.1186 130.167 58.5453 129.687 57.8253C129.207 57.0786 128.967 56.0919 128.967 54.8653C128.967 53.5853 129.327 52.4653 130.047 51.5053C130.767 50.5453 131.78 49.8119 133.087 49.3053C134.42 48.7719 135.993 48.5053 137.807 48.5053C139.193 48.5053 140.593 48.6786 142.007 49.0253C143.447 49.3453 144.62 49.8119 145.527 50.4253L143.887 53.4653C142.927 52.8253 141.927 52.3853 140.887 52.1453C139.847 51.9053 138.807 51.7853 137.767 51.7853C136.087 51.7853 134.833 52.0653 134.007 52.6253C133.18 53.1586 132.767 53.8519 132.767 54.7053C132.767 55.4253 133.007 55.9853 133.487 56.3853C133.993 56.7586 134.633 57.0519 135.407 57.2653C136.207 57.4786 137.087 57.6653 138.047 57.8253C139.007 57.9586 139.967 58.1453 140.927 58.3853C141.887 58.5986 142.753 58.9053 143.527 59.3053C144.327 59.7053 144.967 60.2653 145.447 60.9853C145.953 61.7053 146.207 62.6653 146.207 63.8653C146.207 65.1453 145.833 66.2519 145.087 67.1853C144.34 68.1186 143.287 68.8519 141.927 69.3853C140.567 69.8919 138.94 70.1453 137.047 70.1453ZM166.628 70.1453C164.494 70.1453 162.841 69.5719 161.668 68.4253C160.494 67.2786 159.908 65.6386 159.908 63.5053V44.0653H163.748V63.3453C163.748 64.4919 164.028 65.3719 164.588 65.9853C165.174 66.5986 166.001 66.9053 167.068 66.9053C168.268 66.9053 169.268 66.5719 170.068 65.9053L171.268 68.6653C170.681 69.1719 169.974 69.5453 169.148 69.7853C168.348 70.0253 167.508 70.1453 166.628 70.1453ZM156.308 51.8653V48.7053H169.828V51.8653H156.308ZM183.63 70.1453C181.817 70.1453 180.217 69.8119 178.83 69.1453C177.47 68.4786 176.404 67.4653 175.63 66.1053C174.884 64.7186 174.51 62.9853 174.51 60.9053V48.7053H178.35V60.4653C178.35 62.5453 178.844 64.1053 179.83 65.1453C180.844 66.1853 182.257 66.7053 184.07 66.7053C185.404 66.7053 186.564 66.4386 187.55 65.9053C188.537 65.3453 189.297 64.5453 189.83 63.5053C190.364 62.4386 190.63 61.1586 190.63 59.6653V48.7053H194.47V69.9053H190.83V64.1853L191.43 65.7053C190.737 67.1186 189.697 68.2119 188.31 68.9853C186.924 69.7586 185.364 70.1453 183.63 70.1453ZM206.661 70.1453C204.901 70.1453 203.221 69.9053 201.621 69.4253C200.047 68.9453 198.807 68.3586 197.901 67.6653L199.501 64.6253C200.407 65.2386 201.527 65.7586 202.861 66.1853C204.194 66.6119 205.554 66.8253 206.941 66.8253C208.727 66.8253 210.007 66.5719 210.781 66.0653C211.581 65.5586 211.981 64.8519 211.981 63.9453C211.981 63.2786 211.741 62.7586 211.261 62.3853C210.781 62.0119 210.141 61.7319 209.341 61.5453C208.567 61.3586 207.701 61.1986 206.741 61.0653C205.781 60.9053 204.821 60.7186 203.861 60.5053C202.901 60.2653 202.021 59.9453 201.221 59.5453C200.421 59.1186 199.781 58.5453 199.301 57.8253C198.821 57.0786 198.581 56.0919 198.581 54.8653C198.581 53.5853 198.941 52.4653 199.661 51.5053C200.381 50.5453 201.394 49.8119 202.701 49.3053C204.034 48.7719 205.607 48.5053 207.421 48.5053C208.807 48.5053 210.207 48.6786 211.621 49.0253C213.061 49.3453 214.234 49.8119 215.141 50.4253L213.501 53.4653C212.541 52.8253 211.541 52.3853 210.501 52.1453C209.461 51.9053 208.421 51.7853 207.381 51.7853C205.701 51.7853 204.447 52.0653 203.621 52.6253C202.794 53.1586 202.381 53.8519 202.381 54.7053C202.381 55.4253 202.621 55.9853 203.101 56.3853C203.607 56.7586 204.247 57.0519 205.021 57.2653C205.821 57.4786 206.701 57.6653 207.661 57.8253C208.621 57.9586 209.581 58.1453 210.541 58.3853C211.501 58.5986 212.367 58.9053 213.141 59.3053C213.941 59.7053 214.581 60.2653 215.061 60.9853C215.567 61.7053 215.821 62.6653 215.821 63.8653C215.821 65.1453 215.447 66.2519 214.701 67.1853C213.954 68.1186 212.901 68.8519 211.541 69.3853C210.181 69.8919 208.554 70.1453 206.661 70.1453ZM64.2464 110.145C61.9797 110.145 59.9797 109.679 58.2464 108.745C56.5397 107.812 55.2064 106.532 54.2464 104.905C53.3131 103.279 52.8464 101.412 52.8464 99.3053C52.8464 97.1986 53.2997 95.3319 54.2064 93.7053C55.1397 92.0786 56.4064 90.8119 58.0064 89.9053C59.6331 88.9719 61.4597 88.5053 63.4864 88.5053C65.5397 88.5053 67.3531 88.9586 68.9264 89.8653C70.4997 90.7719 71.7264 92.0519 72.6064 93.7053C73.5131 95.3319 73.9664 97.2386 73.9664 99.4253C73.9664 99.5853 73.9531 99.7719 73.9264 99.9853C73.9264 100.199 73.9131 100.399 73.8864 100.585H55.8464V97.8253H71.8864L70.3264 98.7853C70.3531 97.4253 70.0731 96.2119 69.4864 95.1453C68.8997 94.0786 68.0864 93.2519 67.0464 92.6653C66.0331 92.0519 64.8464 91.7453 63.4864 91.7453C62.1531 91.7453 60.9664 92.0519 59.9264 92.6653C58.8864 93.2519 58.0731 94.0919 57.4864 95.1853C56.8997 96.2519 56.6064 97.4786 56.6064 98.8653V99.5053C56.6064 100.919 56.9264 102.185 57.5664 103.305C58.2331 104.399 59.1531 105.252 60.3264 105.865C61.4997 106.479 62.8464 106.785 64.3664 106.785C65.6197 106.785 66.7531 106.572 67.7664 106.145C68.8064 105.719 69.7131 105.079 70.4864 104.225L72.6064 106.705C71.6464 107.825 70.4464 108.679 69.0064 109.265C67.5931 109.852 66.0064 110.145 64.2464 110.145ZM83.268 109.905L73.988 88.7053H77.988L86.228 107.905H84.308L92.708 88.7053H96.468L87.188 109.905H83.268ZM107.706 110.145C105.439 110.145 103.439 109.679 101.706 108.745C99.9991 107.812 98.6658 106.532 97.7058 104.905C96.7724 103.279 96.3058 101.412 96.3058 99.3053C96.3058 97.1986 96.7591 95.3319 97.6658 93.7053C98.5991 92.0786 99.8658 90.8119 101.466 89.9053C103.092 88.9719 104.919 88.5053 106.946 88.5053C108.999 88.5053 110.812 88.9586 112.386 89.8653C113.959 90.7719 115.186 92.0519 116.066 93.7053C116.972 95.3319 117.426 97.2386 117.426 99.4253C117.426 99.5853 117.412 99.7719 117.386 99.9853C117.386 100.199 117.372 100.399 117.346 100.585H99.3058V97.8253H115.346L113.786 98.7853C113.812 97.4253 113.532 96.2119 112.946 95.1453C112.359 94.0786 111.546 93.2519 110.506 92.6653C109.492 92.0519 108.306 91.7453 106.946 91.7453C105.612 91.7453 104.426 92.0519 103.386 92.6653C102.346 93.2519 101.532 94.0919 100.946 95.1853C100.359 96.2519 100.066 97.4786 100.066 98.8653V99.5053C100.066 100.919 100.386 102.185 101.026 103.305C101.692 104.399 102.612 105.252 103.786 105.865C104.959 106.479 106.306 106.785 107.826 106.785C109.079 106.785 110.212 106.572 111.226 106.145C112.266 105.719 113.172 105.079 113.946 104.225L116.066 106.705C115.106 107.825 113.906 108.679 112.466 109.265C111.052 109.852 109.466 110.145 107.706 110.145ZM132.878 88.5053C134.611 88.5053 136.131 88.8386 137.438 89.5053C138.771 90.1719 139.811 91.1853 140.558 92.5453C141.305 93.9053 141.678 95.6253 141.678 97.7053V109.905H137.838V98.1453C137.838 96.0919 137.331 94.5453 136.318 93.5053C135.331 92.4653 133.931 91.9453 132.118 91.9453C130.758 91.9453 129.571 92.2119 128.558 92.7453C127.545 93.2786 126.758 94.0653 126.198 95.1053C125.665 96.1453 125.398 97.4386 125.398 98.9853V109.905H121.558V88.7053H125.238V94.4253L124.638 92.9053C125.331 91.5186 126.398 90.4386 127.838 89.6653C129.278 88.8919 130.958 88.5053 132.878 88.5053ZM154.865 110.145C152.731 110.145 151.078 109.572 149.905 108.425C148.731 107.279 148.145 105.639 148.145 103.505V84.0653H151.985V103.345C151.985 104.492 152.265 105.372 152.825 105.985C153.411 106.599 154.238 106.905 155.305 106.905C156.505 106.905 157.505 106.572 158.305 105.905L159.505 108.665C158.918 109.172 158.211 109.545 157.385 109.785C156.585 110.025 155.745 110.145 154.865 110.145ZM144.545 91.8653V88.7053H158.065V91.8653H144.545ZM171.324 110.145C169.191 110.145 167.297 109.679 165.644 108.745C163.991 107.812 162.684 106.532 161.724 104.905C160.764 103.252 160.284 101.385 160.284 99.3053C160.284 97.1986 160.764 95.3319 161.724 93.7053C162.684 92.0786 163.991 90.8119 165.644 89.9053C167.297 88.9719 169.191 88.5053 171.324 88.5053C173.431 88.5053 175.311 88.9719 176.964 89.9053C178.644 90.8119 179.951 92.0786 180.884 93.7053C181.844 95.3053 182.324 97.1719 182.324 99.3053C182.324 101.412 181.844 103.279 180.884 104.905C179.951 106.532 178.644 107.812 176.964 108.745C175.311 109.679 173.431 110.145 171.324 110.145ZM171.324 106.785C172.684 106.785 173.897 106.479 174.964 105.865C176.057 105.252 176.911 104.385 177.524 103.265C178.137 102.119 178.444 100.799 178.444 99.3053C178.444 97.7853 178.137 96.4786 177.524 95.3853C176.911 94.2653 176.057 93.3986 174.964 92.7853C173.897 92.1719 172.684 91.8653 171.324 91.8653C169.964 91.8653 168.751 92.1719 167.684 92.7853C166.617 93.3986 165.764 94.2653 165.124 95.3853C164.484 96.4786 164.164 97.7853 164.164 99.3053C164.164 100.799 164.484 102.119 165.124 103.265C165.764 104.385 166.617 105.252 167.684 105.865C168.751 106.479 169.964 106.785 171.324 106.785ZM192.515 110.145C190.755 110.145 189.075 109.905 187.475 109.425C185.901 108.945 184.661 108.359 183.755 107.665L185.355 104.625C186.261 105.239 187.381 105.759 188.715 106.185C190.048 106.612 191.408 106.825 192.795 106.825C194.581 106.825 195.861 106.572 196.635 106.065C197.435 105.559 197.835 104.852 197.835 103.945C197.835 103.279 197.595 102.759 197.115 102.385C196.635 102.012 195.995 101.732 195.195 101.545C194.421 101.359 193.555 101.199 192.595 101.065C191.635 100.905 190.675 100.719 189.715 100.505C188.755 100.265 187.875 99.9453 187.075 99.5453C186.275 99.1186 185.635 98.5453 185.155 97.8253C184.675 97.0786 184.435 96.0919 184.435 94.8653C184.435 93.5853 184.795 92.4653 185.515 91.5053C186.235 90.5453 187.248 89.8119 188.555 89.3053C189.888 88.7719 191.461 88.5053 193.275 88.5053C194.661 88.5053 196.061 88.6786 197.475 89.0253C198.915 89.3453 200.088 89.8119 200.995 90.4253L199.355 93.4653C198.395 92.8253 197.395 92.3853 196.355 92.1453C195.315 91.9053 194.275 91.7853 193.235 91.7853C191.555 91.7853 190.301 92.0653 189.475 92.6253C188.648 93.1586 188.235 93.8519 188.235 94.7053C188.235 95.4253 188.475 95.9853 188.955 96.3853C189.461 96.7586 190.101 97.0519 190.875 97.2653C191.675 97.4786 192.555 97.6653 193.515 97.8253C194.475 97.9586 195.435 98.1453 196.395 98.3853C197.355 98.5986 198.221 98.9053 198.995 99.3053C199.795 99.7053 200.435 100.265 200.915 100.985C201.421 101.705 201.675 102.665 201.675 103.865C201.675 105.145 201.301 106.252 200.555 107.185C199.808 108.119 198.755 108.852 197.395 109.385C196.035 109.892 194.408 110.145 192.515 110.145Z" fill="url(#paint0_linear_1368_1532)"/>
<defs>
<linearGradient id="paint0_linear_1368_1532" x1="127" y1="-4.09473" x2="183.447" y2="199.542" gradientUnits="userSpaceOnUse">
<stop stop-color="#ECECEC"/>
<stop offset="1" stop-color="#ECECEC" stop-opacity="0"/>
</linearGradient>
</defs>
</svg>
