<svg width="53" height="63" viewBox="0 0 53 63" fill="none" xmlns="http://www.w3.org/2000/svg">
<path d="M48.5 22C50.9853 22 53 19.9853 53 17.5C53 15.0147 50.9853 13 48.5 13C46.0147 13 44 15.0147 44 17.5C44 19.9853 46.0147 22 48.5 22Z" fill="#4442B6"/>
<path d="M26.9748 28.1574C29.6751 30.8238 29.6751 35.1762 26.9748 37.8426L13.6337 51.0155C9.32134 55.2736 2 52.2261 2 46.1729V19.8271C2 13.7739 9.32134 10.7264 13.6337 14.9845L26.9748 28.1574Z" fill="#370C94"/>
<mask id="mask0_1385_2405" style="mask-type:alpha" maskUnits="userSpaceOnUse" x="2" y="13" width="28" height="40">
<path d="M27.2884 28.182C30.0227 30.8457 30.0225 35.1938 27.2884 37.8576L13.7798 51.0175C9.41324 55.2714 2 52.2269 2 46.1797V19.8599C2 13.8126 9.41324 10.7682 13.7798 15.0221L27.2884 28.182Z" fill="#370C94"/>
</mask>
<g mask="url(#mask0_1385_2405)">
<path d="M27.2356 45.3714C23.5193 48.8226 31.951 49.7082 22.0869 39.4177C12.2229 29.1272 -9.84864 13.2748 -6.13235 9.82354C-2.41605 6.37228 15.3517 10.8105 25.2158 21.101C35.0798 31.3914 30.9518 41.9202 27.2356 45.3714Z" fill="#4442B6"/>
</g>
<path fill-rule="evenodd" clip-rule="evenodd" d="M21.5414 16.3349C24.6364 13.2488 29.6857 13.218 32.8193 16.266L46.6983 29.7659C48.4188 31.4393 48.436 34.1694 46.7368 35.8637C46.6284 35.9718 46.5165 36.0744 46.4014 36.1716C46.2774 36.3326 46.1421 36.4878 45.9957 36.6365L33.2825 49.5371C30.1136 52.7527 24.8978 52.8296 21.6327 49.7088C20.8644 48.9745 20.8461 47.7658 21.5917 47.0093L28.257 40.2456C28.4918 39.9651 28.8654 39.6042 29.3047 39.1799C29.3219 39.1632 29.3393 39.1464 29.3567 39.1296L30.9389 37.5241C32.1177 36.2223 33.2013 34.6673 33.2013 33.086C33.2013 30.8346 31.2748 28.6467 29.9703 27.1652C29.8985 27.0838 29.8288 27.0046 29.7612 26.9274L21.5579 18.9482C20.8205 18.2311 20.8132 17.0611 21.5414 16.3349Z" fill="#8F2079"/>
<mask id="mask1_1385_2405" style="mask-type:alpha" maskUnits="userSpaceOnUse" x="20" y="13" width="29" height="40">
<path fill-rule="evenodd" clip-rule="evenodd" d="M21.2808 16.1138C24.4365 12.9689 29.5847 12.9374 32.7798 16.0435L46.9309 29.8005C48.685 31.5058 48.7025 34.2879 46.97 36.0145C46.8595 36.1246 46.7454 36.2292 46.6281 36.3283C46.5017 36.4923 46.3637 36.6505 46.2144 36.802L33.252 49.9483C30.0211 53.2251 24.703 53.3035 21.3739 50.1232C20.5905 49.375 20.5719 48.1433 21.3321 47.3724L28.1281 40.4799C28.3674 40.194 28.7484 39.8262 29.1963 39.3939C29.2139 39.3768 29.2316 39.3597 29.2494 39.3426L30.8626 37.7065C32.0644 36.3799 33.1693 34.7953 33.1693 33.1838C33.1693 30.8896 31.205 28.6601 29.875 27.1503C29.8018 27.0674 29.7307 26.9866 29.6617 26.908L21.2976 18.7768C20.5458 18.046 20.5383 16.8537 21.2808 16.1138Z" fill="#D9D9D9"/>
</mask>
<g mask="url(#mask1_1385_2405)">
<path d="M46.4584 21.6754C46.4584 32.0132 63.2447 47.2002 52.4237 47.2002C41.6027 47.2002 39.7457 55.2691 39.7457 44.9314C39.7457 34.5936 6.45017 12.5999 17.2712 12.5999C27.0678 8.62936 46.4584 11.3376 46.4584 21.6754Z" fill="#C41BA2"/>
</g>
</svg>
